# xmcd
#
# Track frame offsets:
#	150
#	10824
#	19580
#	34060
#	44652
#	51989
#	56583
#	75448
#	85189
#	90705
#	96997
#	103933
#	122237
#	129285
#	211206
#	235313
#
# Disc length: 3462 seconds
#
# Revision: 1
# Processed by: cddbd v1.5.1PL0 Copyright (c) Steve Scherf et al.
# Submitted via: CDex 1.50Beta5
#
DISCID=d00d8410
DTITLE=CD - 蒼い海のトリスティアふたたび! ドラマCD Disk2
DYEAR=1900
DGENRE=
TTITLE0=あなたがダントツに一番よ、フォーリィ
TTITLE1=ちょっと毛深い感じのグラマーちゃんが好きだね!・・・・・わたしは!
TTITLE2=敢えて言おう・・・・・カスであるとっ!!
TTITLE3=水着ブラがとれてしまいました!
TTITLE4=そんなんじゃ、ハートに火が灯くはずありませんわ・・・・・!
TTITLE5=最終話 予告
TTITLE6=ありがとう・・・・・トリスティアのみんなに、感謝を
TTITLE7=あげたよ・・・・・ナノカに
TTITLE8=・・・・ナノカさん・・・・優しい
TTITLE9=アンタから、施しを受けるほど落ちぶれちゃいないのよ!
TTITLE10=・・・・お金は人を惑わすわ。
TTITLE11=未来の人達に、ちょっと素敵なプレゼントだね
TTITLE12=エンドクレジット
TTITLE13=スペシャルDJ!〜フォーリィ、レイグレッドそしてラファルーのラジオトリスティア!
TTITLE14=あなたも歌える!「ひとりよりふたりで」カラオケ(ナノカヴァージョン)
TTITLE15=あなたも歌える!「ひとりよりふたりで」カラオケ(スツーカヴァージョン)
EXTD=
EXTT0=
EXTT1=
EXTT2=
EXTT3=
EXTT4=
EXTT5=
EXTT6=
EXTT7=
EXTT8=
EXTT9=
EXTT10=
EXTT11=
EXTT12=
EXTT13=
EXTT14=
EXTT15=
PLAYORDER=
